# xmcd
#
# Track frame offsets:
# 150
# 18064
# 35398
# 49045
# 63841
# 79350
# 98604
# 115917
# 132377
# 148199
# 164318
# 179368
# 196358
#
# Disc length: 2870 seconds
#
#
# Revision: 0
# Processed by: cddbd v1.5.1PL0 Copyright (c) Steve Scherf et al.
# Submitted via: FreeRIP 2.30 
#
DISCID=ab0b340d
DTITLE=Crabb Family - Driven
DYEAR=2004
DGENRE=Contemporary Christian
TTITLE0=Promised Land
TTITLE1=The Shepherd's Call
TTITLE2=Sacrifice Of Praise
TTITLE3=My Keeper
TTITLE4=Good Day
TTITLE5=Forever
TTITLE6=Walk Away
TTITLE7=Rahab
TTITLE8=You Can't Imagine
TTITLE9=Chapter 2
TTITLE10=A Soldier On His Knees
TTITLE11=He Came Looking For Me
TTITLE12=Through The Fire
EXTD=
EXTT0=
EXTT1=
EXTT2=
EXTT3=
EXTT4=
EXTT5=
EXTT6=
EXTT7=
EXTT8=
EXTT9=
EXTT10=
EXTT11=
EXTT12=
PLAYORDER=
